<svg width="20" height="20" viewBox="0 0 20 20" fill="none" xmlns="http://www.w3.org/2000/svg">
<path fill-rule="evenodd" clip-rule="evenodd" d="M6.39175 1.6665H13.6167C16.4417 1.6665 18.3334 3.64984 18.3334 6.59984V13.409C18.3334 16.3498 16.4417 18.3332 13.6167 18.3332H6.39175C3.56675 18.3332 1.66675 16.3498 1.66675 13.409V6.59984C1.66675 3.64984 3.56675 1.6665 6.39175 1.6665ZM9.52509 12.4916L13.4834 8.53331C13.7668 8.24998 13.7668 7.79165 13.4834 7.49998C13.2001 7.21665 12.7334 7.21665 12.4501 7.49998L9.00842 10.9416L7.55009 9.48331C7.26676 9.19998 6.80009 9.19998 6.51676 9.48331C6.23342 9.76665 6.23342 10.225 6.51676 10.5166L8.50009 12.4916C8.64176 12.6333 8.82509 12.7 9.00842 12.7C9.20009 12.7 9.38342 12.6333 9.52509 12.4916Z" fill="#F7F7F8"/>
</svg>
