<svg width="15" height="15" viewBox="0 0 15 15" fill="none" xmlns="http://www.w3.org/2000/svg">
<path d="M6.10851 11.5774H0.85791" stroke="#A1A1A1" stroke-width="1.3" stroke-linecap="round" stroke-linejoin="round"/>
<path d="M8.45044 3.50023H13.701" stroke="#A1A1A1" stroke-width="1.3" stroke-linecap="round" stroke-linejoin="round"/>
<path fill-rule="evenodd" clip-rule="evenodd" d="M4.77195 3.45521C4.77195 2.3755 3.89015 1.5 2.80266 1.5C1.71517 1.5 0.833374 2.3755 0.833374 3.45521C0.833374 4.53492 1.71517 5.41042 2.80266 5.41042C3.89015 5.41042 4.77195 4.53492 4.77195 3.45521Z" stroke="#A1A1A1" stroke-width="1.3" stroke-linecap="round" stroke-linejoin="round"/>
<path fill-rule="evenodd" clip-rule="evenodd" d="M14.1667 11.5448C14.1667 10.4651 13.2856 9.5896 12.1981 9.5896C11.1099 9.5896 10.2281 10.4651 10.2281 11.5448C10.2281 12.6245 11.1099 13.5 12.1981 13.5C13.2856 13.5 14.1667 12.6245 14.1667 11.5448Z" stroke="#A1A1A1" stroke-width="1.3" stroke-linecap="round" stroke-linejoin="round"/>
</svg>
