<svg width="18" height="13" viewBox="0 0 18 13" fill="none" xmlns="http://www.w3.org/2000/svg">
<path d="M7.13386 7.91095C6.65469 7.52563 6.36302 7.00201 6.36302 6.41463C6.36302 5.23785 7.53969 4.28931 8.99969 4.28931C9.72219 4.28931 10.3872 4.52493 10.858 4.91026" stroke="#AEAEB2" stroke-width="1.5" stroke-linecap="round" stroke-linejoin="round"/>
<path d="M11.5874 6.7915C11.394 7.65748 10.5474 8.34086 9.47321 8.49794" stroke="#AEAEB2" stroke-width="1.5" stroke-linecap="round" stroke-linejoin="round"/>
<path d="M4.54552 9.9958C3.22302 9.15937 2.10302 7.93761 1.29135 6.41444C2.11135 4.88456 3.23885 3.65608 4.56968 2.81293C5.89218 1.96979 7.41802 1.51196 8.99969 1.51196C10.5905 1.51196 12.1155 1.9765 13.4464 2.82569" stroke="#AEAEB2" stroke-width="1.5" stroke-linecap="round" stroke-linejoin="round"/>
<path d="M15.2063 4.302C15.7797 4.91557 16.2838 5.62378 16.708 6.4139C15.0688 9.473 12.1722 11.3157 8.99968 11.3157C8.28051 11.3157 7.57135 11.2217 6.88968 11.0385" stroke="#AEAEB2" stroke-width="1.5" stroke-linecap="round" stroke-linejoin="round"/>
<path d="M15.5725 1.11938L2.42754 11.7084" stroke="#AEAEB2" stroke-width="1.5" stroke-linecap="round" stroke-linejoin="round"/>
</svg>
